# xmcd
#
# Track frame offsets: 
#        150
#        10967
#        23548
#        37971
#        55886
#        67591
#
# Disc length: 1084 seconds
#
# Revision: 1
# Processed by: cddbd v1.5.2PL0 Copyright (c) Steve Scherf et al.
# Submitted via: ExactAudioCopy v1.0b3
#
DISCID=39043a06
DTITLE=Exhumed - All Guts, No Glory (Deluxe Edition)
DYEAR=2011
DGENRE=Metal
TTITLE0=The Way Of All Flesh (Bonus Track)
TTITLE1=Unclean (Bonus Track)
TTITLE2=To Wake The Dead (Bonus Track)
TTITLE3=Cold Caress (Bonus Track)
TTITLE4=Necromaniac 2011 (Bonus Track)
TTITLE5=Forged In Fire (Formed In Flames) 2011 [Bonus Track]
EXTD=
EXTT0=
EXTT1=
EXTT2=
EXTT3=
EXTT4=
EXTT5=
PLAYORDER=
